<svg width="209" height="215" viewBox="0 0 209 215" fill="none" xmlns="http://www.w3.org/2000/svg">
<path d="M19.215 111.636V148H11.5268V118.934H11.3137L2.98633 124.154V117.336L11.9885 111.636H19.215ZM42.1154 148.799C39.0614 148.787 36.4336 148.036 34.2319 146.544C32.042 145.053 30.3552 142.892 29.1715 140.063C27.9996 137.234 27.4196 133.831 27.4315 129.854C27.4315 125.888 28.0174 122.509 29.1893 119.715C30.373 116.922 32.0598 114.797 34.2496 113.341C36.4513 111.873 39.0733 111.139 42.1154 111.139C45.1576 111.139 47.7736 111.873 49.9634 113.341C52.1651 114.809 53.8578 116.939 55.0415 119.733C56.2253 122.515 56.8112 125.888 56.7994 129.854C56.7994 133.843 56.2075 137.252 55.0238 140.081C53.8519 142.91 52.171 145.07 49.9812 146.562C47.7913 148.053 45.1694 148.799 42.1154 148.799ZM42.1154 142.425C44.1987 142.425 45.8619 141.377 47.1048 139.282C48.3477 137.187 48.9632 134.044 48.9513 129.854C48.9513 127.096 48.6673 124.799 48.0991 122.964C47.5427 121.13 46.7496 119.751 45.7198 118.827C44.7018 117.904 43.5004 117.442 42.1154 117.442C40.0439 117.442 38.3867 118.478 37.1438 120.55C35.9009 122.621 35.2736 125.723 35.2617 129.854C35.2617 132.647 35.5399 134.979 36.0962 136.849C36.6644 138.708 37.4634 140.105 38.4933 141.04C39.5231 141.963 40.7305 142.425 42.1154 142.425ZM65.3088 148.462C64.1369 148.462 63.1307 148.047 62.2903 147.219C61.4617 146.378 61.0474 145.372 61.0474 144.2C61.0474 143.04 61.4617 142.046 62.2903 141.217C63.1307 140.389 64.1369 139.974 65.3088 139.974C66.4451 139.974 67.4395 140.389 68.2917 141.217C69.144 142.046 69.5701 143.04 69.5701 144.2C69.5701 144.982 69.3689 145.698 68.9664 146.349C68.5758 146.988 68.0609 147.503 67.4217 147.893C66.7825 148.272 66.0782 148.462 65.3088 148.462ZM88.5021 148.799C85.4482 148.787 82.8203 148.036 80.6186 146.544C78.4287 145.053 76.742 142.892 75.5582 140.063C74.3864 137.234 73.8063 133.831 73.8182 129.854C73.8182 125.888 74.4041 122.509 75.576 119.715C76.7597 116.922 78.4465 114.797 80.6364 113.341C82.8381 111.873 85.46 111.139 88.5021 111.139C91.5443 111.139 94.1603 111.873 96.3501 113.341C98.5518 114.809 100.245 116.939 101.428 119.733C102.612 122.515 103.198 125.888 103.186 129.854C103.186 133.843 102.594 137.252 101.411 140.081C100.239 142.91 98.5578 145.07 96.3679 146.562C94.178 148.053 91.5561 148.799 88.5021 148.799ZM88.5021 142.425C90.5855 142.425 92.2486 141.377 93.4915 139.282C94.7344 137.187 95.3499 134.044 95.3381 129.854C95.3381 127.096 95.054 124.799 94.4858 122.964C93.9295 121.13 93.1364 119.751 92.1065 118.827C91.0885 117.904 89.8871 117.442 88.5021 117.442C86.4306 117.442 84.7734 118.478 83.5305 120.55C82.2876 122.621 81.6603 125.723 81.6484 129.854C81.6484 132.647 81.9266 134.979 82.483 136.849C83.0511 138.708 83.8501 140.105 84.88 141.04C85.9098 141.963 87.1172 142.425 88.5021 142.425ZM122.926 148.799C119.872 148.787 117.244 148.036 115.042 146.544C112.853 145.053 111.166 142.892 109.982 140.063C108.81 137.234 108.23 133.831 108.242 129.854C108.242 125.888 108.828 122.509 110 119.715C111.184 116.922 112.87 114.797 115.06 113.341C117.262 111.873 119.884 111.139 122.926 111.139C125.968 111.139 128.584 111.873 130.774 113.341C132.976 114.809 134.668 116.939 135.852 119.733C137.036 122.515 137.622 125.888 137.61 129.854C137.61 133.843 137.018 137.252 135.834 140.081C134.662 142.91 132.982 145.07 130.792 146.562C128.602 148.053 125.98 148.799 122.926 148.799ZM122.926 142.425C125.009 142.425 126.672 141.377 127.915 139.282C129.158 137.187 129.774 134.044 129.762 129.854C129.762 127.096 129.478 124.799 128.91 122.964C128.353 121.13 127.56 119.751 126.53 118.827C125.512 117.904 124.311 117.442 122.926 117.442C120.854 117.442 119.197 118.478 117.954 120.55C116.711 122.621 116.084 125.723 116.072 129.854C116.072 132.647 116.35 134.979 116.907 136.849C117.475 138.708 118.274 140.105 119.304 141.04C120.334 141.963 121.541 142.425 122.926 142.425ZM157.35 148.799C154.296 148.787 151.668 148.036 149.466 146.544C147.276 145.053 145.59 142.892 144.406 140.063C143.234 137.234 142.654 133.831 142.666 129.854C142.666 125.888 143.252 122.509 144.424 119.715C145.607 116.922 147.294 114.797 149.484 113.341C151.686 111.873 154.308 111.139 157.35 111.139C160.392 111.139 163.008 111.873 165.198 113.341C167.4 114.809 169.092 116.939 170.276 119.733C171.46 122.515 172.046 125.888 172.034 129.854C172.034 133.843 171.442 137.252 170.258 140.081C169.086 142.91 167.405 145.07 165.216 146.562C163.026 148.053 160.404 148.799 157.35 148.799ZM157.35 142.425C159.433 142.425 161.096 141.377 162.339 139.282C163.582 137.187 164.198 134.044 164.186 129.854C164.186 127.096 163.902 124.799 163.333 122.964C162.777 121.13 161.984 119.751 160.954 118.827C159.936 117.904 158.735 117.442 157.35 117.442C155.278 117.442 153.621 118.478 152.378 120.55C151.135 122.621 150.508 125.723 150.496 129.854C150.496 132.647 150.774 134.979 151.331 136.849C151.899 138.708 152.698 140.105 153.728 141.04C154.757 141.963 155.965 142.425 157.35 142.425ZM188.382 142.46V117.318H194.739V142.46H188.382ZM178.99 133.067V126.711H204.132V133.067H178.99Z" fill="#EE0033"/>
<path d="M8.45969 192H10.4348V187.928L11.9817 186.151L16.2132 192H18.5911L13.2921 184.803L18.5719 178.909H16.0854L10.5946 185.161H10.4348V178.909H8.45969V192ZM22.1706 186.17C22.1706 184.604 23.1614 183.71 24.5229 183.71C25.8397 183.71 26.6259 184.547 26.6259 185.985V192H28.5371V185.755C28.5371 183.307 27.1948 182.054 25.1749 182.054C23.6472 182.054 22.7267 182.719 22.2665 183.78H22.1451V178.909H20.2594V192H22.1706V186.17ZM33.9448 192.217C35.5684 192.217 36.4824 191.393 36.8468 190.658H36.9235V192H38.79V185.48C38.79 182.623 36.54 182.054 34.9803 182.054C33.2033 182.054 31.5669 182.77 30.9277 184.56L32.7239 184.969C33.0051 184.272 33.7211 183.601 35.0059 183.601C36.2395 183.601 36.8723 184.246 36.8723 185.359V185.403C36.8723 186.1 36.1564 186.087 34.3922 186.292C32.5321 186.509 30.6273 186.995 30.6273 189.226C30.6273 191.156 32.0783 192.217 33.9448 192.217ZM34.3603 190.683C33.28 190.683 32.5002 190.197 32.5002 189.251C32.5002 188.229 33.4078 187.864 34.5137 187.717C35.1337 187.634 36.6039 187.468 36.8787 187.193V188.459C36.8787 189.622 35.9519 190.683 34.3603 190.683ZM34.29 180.871H35.8176L37.7992 177.925H35.7857L34.29 180.871ZM45.4712 192.198C47.7915 192.198 49.2937 190.805 49.5046 188.893H47.6445C47.4016 189.955 46.5771 190.581 45.484 190.581C43.8668 190.581 42.8249 189.232 42.8249 187.091C42.8249 184.988 43.886 183.665 45.484 183.665C46.6985 183.665 47.44 184.432 47.6445 185.352H49.5046C49.3001 183.371 47.6829 182.054 45.4521 182.054C42.6843 182.054 40.8945 184.138 40.8945 187.136C40.8945 190.095 42.6204 192.198 45.4712 192.198ZM53.4597 186.17C53.4597 184.604 54.4505 183.71 55.812 183.71C57.1287 183.71 57.915 184.547 57.915 185.985V192H59.8262V185.755C59.8262 183.307 58.4838 182.054 56.464 182.054C54.9363 182.054 54.0158 182.719 53.5556 183.78H53.4341V178.909H51.5485V192H53.4597V186.17ZM69.0515 186.17C69.0515 184.604 70.0423 183.71 71.4038 183.71C72.7205 183.71 73.5067 184.547 73.5067 185.985V192H75.418V185.755C75.418 183.307 74.0756 182.054 72.0558 182.054C70.5281 182.054 69.6076 182.719 69.1474 183.78H69.0259V178.909H67.1403V192H69.0515V186.17ZM80.8256 192.217C82.4492 192.217 83.3633 191.393 83.7276 190.658H83.8043V192H85.6708V185.48C85.6708 182.623 83.4208 182.054 81.8612 182.054C80.0842 182.054 78.4478 182.77 77.8086 184.56L79.6048 184.969C79.886 184.272 80.6019 183.601 81.8867 183.601C83.1204 183.601 83.7532 184.246 83.7532 185.359V185.403C83.7532 186.1 83.0373 186.087 81.2731 186.292C79.413 186.509 77.5082 186.995 77.5082 189.226C77.5082 191.156 78.9592 192.217 80.8256 192.217ZM81.2411 190.683C80.1609 190.683 79.381 190.197 79.381 189.251C79.381 188.229 80.2887 187.864 81.3945 187.717C82.0146 187.634 83.4847 187.468 83.7596 187.193V188.459C83.7596 189.622 82.8327 190.683 81.2411 190.683ZM81.2156 180.871H82.7433L81.2539 177.925H79.2404L81.2156 180.871ZM90.1277 186.17C90.1277 184.604 91.0865 183.71 92.416 183.71C93.7136 183.71 94.4998 184.56 94.4998 185.985V192H96.411V185.755C96.411 183.326 95.0751 182.054 93.068 182.054C91.5914 182.054 90.6262 182.738 90.1724 183.78H90.051V182.182H88.2164V192H90.1277V186.17ZM103.091 195.886C105.59 195.886 107.52 194.742 107.52 192.217V182.182H105.648V183.773H105.507C105.168 183.166 104.491 182.054 102.662 182.054C100.291 182.054 98.546 183.927 98.546 187.053C98.546 190.185 100.329 191.853 102.65 191.853C104.452 191.853 105.149 190.837 105.494 190.21H105.616V192.141C105.616 193.681 104.561 194.346 103.11 194.346C101.518 194.346 100.898 193.547 100.559 192.984L98.9167 193.662C99.4345 194.864 100.745 195.886 103.091 195.886ZM103.072 190.268C101.365 190.268 100.476 188.957 100.476 187.027C100.476 185.141 101.346 183.678 103.072 183.678C104.74 183.678 105.635 185.039 105.635 187.027C105.635 189.053 104.721 190.268 103.072 190.268ZM118.983 192.198C121.303 192.198 122.805 190.805 123.016 188.893H121.156C120.913 189.955 120.089 190.581 118.996 190.581C117.379 190.581 116.337 189.232 116.337 187.091C116.337 184.988 117.398 183.665 118.996 183.665C120.21 183.665 120.952 184.432 121.156 185.352H123.016C122.812 183.371 121.195 182.054 118.964 182.054C116.196 182.054 114.406 184.138 114.406 187.136C114.406 190.095 116.132 192.198 118.983 192.198ZM131.28 187.928C131.286 189.597 130.046 190.389 128.972 190.389C127.79 190.389 126.971 189.533 126.971 188.197V182.182H125.06V188.427C125.06 190.862 126.396 192.128 128.282 192.128C129.758 192.128 130.762 191.348 131.216 190.3H131.318V192H133.197V182.182H131.28V187.928ZM129.918 180.827V180.213C130.589 180.111 131.26 179.746 131.254 178.909C131.26 177.867 130.238 177.209 128.307 177.209L128.25 178.263C129.004 178.263 129.599 178.442 129.592 178.903C129.599 179.286 129.26 179.478 128.358 179.523L128.41 180.827H129.918ZM138.623 192.217C140.246 192.217 141.16 191.393 141.525 190.658H141.601V192H143.468V185.48C143.468 182.623 141.218 182.054 139.658 182.054C137.881 182.054 136.245 182.77 135.605 184.56L137.402 184.969C137.683 184.272 138.399 183.601 139.684 183.601C140.917 183.601 141.55 184.246 141.55 185.359V185.403C141.55 186.1 140.834 186.087 139.07 186.292C137.21 186.509 135.305 186.995 135.305 189.226C135.305 191.156 136.756 192.217 138.623 192.217ZM139.038 190.683C137.958 190.683 137.178 190.197 137.178 189.251C137.178 188.229 138.086 187.864 139.191 187.717C139.811 187.634 141.282 187.468 141.556 187.193V188.459C141.556 189.622 140.63 190.683 139.038 190.683ZM150.93 192H152.906V186.292H159.432V192H161.413V178.909H159.432V184.598H152.906V178.909H150.93V192ZM164.29 192H172.574V190.3H166.265V186.292H172.069V184.598H166.265V180.609H172.497V178.909H164.29V192ZM185.702 178.909H183.746V188.523H183.624L176.964 178.909H175.135V192H177.111V182.399H177.232L183.886 192H185.702V178.909ZM199.954 185.455C199.954 181.268 197.449 178.73 194.061 178.73C190.66 178.73 188.161 181.268 188.161 185.455C188.161 189.635 190.66 192.179 194.061 192.179C197.449 192.179 199.954 189.641 199.954 185.455ZM197.998 185.455C197.998 188.644 196.311 190.376 194.061 190.376C191.804 190.376 190.123 188.644 190.123 185.455C190.123 182.265 191.804 180.533 194.061 180.533C196.311 180.533 197.998 182.265 197.998 185.455Z" fill="#333333"/>
<circle cx="104" cy="36" r="36" fill="#DD242C"/>
<g clip-path="url(#clip0_1092_15702)">
<path d="M103.346 33.764C106.292 33.764 108.844 32.7071 110.929 30.622C113.013 28.5372 114.07 25.9863 114.07 23.0394C114.07 20.0934 113.013 17.5422 110.928 15.4567C108.843 13.3723 106.292 12.3154 103.346 12.3154C100.399 12.3154 97.8479 13.3723 95.7631 15.4571C93.6783 17.5419 92.6211 20.0931 92.6211 23.0394C92.6211 25.9863 93.6783 28.5375 95.7634 30.6223C97.8485 32.7068 100.4 33.764 103.346 33.764Z" fill="white"/>
<path d="M122.111 46.5538C122.051 45.6862 121.929 44.7397 121.75 43.7403C121.57 42.7334 121.337 41.7816 121.058 40.9116C120.771 40.0124 120.379 39.1244 119.896 38.2734C119.393 37.3902 118.804 36.6211 118.142 35.9882C117.45 35.3261 116.603 34.7938 115.623 34.4055C114.647 34.0193 113.565 33.8236 112.407 33.8236C111.953 33.8236 111.513 34.0101 110.664 34.5628C110.142 34.9035 109.531 35.2976 108.849 35.7334C108.265 36.1051 107.475 36.4533 106.499 36.7685C105.547 37.0766 104.58 37.2329 103.626 37.2329C102.672 37.2329 101.705 37.0766 100.752 36.7685C99.777 36.4536 98.9869 36.1054 98.4043 35.7338C97.7286 35.302 97.1171 34.9079 96.5868 34.5624C95.7389 34.0097 95.299 33.8232 94.8445 33.8232C93.6867 33.8232 92.6051 34.0193 91.6291 34.4058C90.6501 34.7934 89.8025 35.3258 89.1099 35.9885C88.4485 36.6218 87.8584 37.3905 87.357 38.2734C86.8736 39.1244 86.4822 40.012 86.1942 40.9119C85.9159 41.7819 85.6832 42.7334 85.5025 43.7403C85.3235 44.7384 85.2019 45.6852 85.1417 46.5548C85.0826 47.4068 85.0527 48.291 85.0527 49.1841C85.0527 51.5084 85.7916 53.3901 87.2486 54.7778C88.6876 56.1471 90.5917 56.8418 92.9071 56.8418H114.347C116.662 56.8418 118.566 56.1475 120.005 54.7778C121.462 53.3911 122.201 51.5091 122.201 49.1838C122.201 48.2866 122.171 47.4017 122.111 46.5538Z" fill="white"/>
</g>
<defs>
<clipPath id="clip0_1092_15702">
<rect width="44.5263" height="44.5263" fill="white" transform="translate(85.0527 12.3154)"/>
</clipPath>
</defs>
</svg>
