<svg width="184" height="215" viewBox="0 0 184 215" fill="none" xmlns="http://www.w3.org/2000/svg">
<path d="M24.9035 111.636V148H17.2153V118.934H17.0022L8.6748 124.154V117.336L17.6769 111.636H24.9035ZM36.0851 148.462C34.9133 148.462 33.9071 148.047 33.0667 147.219C32.2381 146.378 31.8238 145.372 31.8238 144.2C31.8238 143.04 32.2381 142.046 33.0667 141.217C33.9071 140.389 34.9133 139.974 36.0851 139.974C37.2215 139.974 38.2158 140.389 39.0681 141.217C39.9204 142.046 40.3465 143.04 40.3465 144.2C40.3465 144.982 40.1453 145.698 39.7428 146.349C39.3522 146.988 38.8373 147.503 38.1981 147.893C37.5589 148.272 36.8546 148.462 36.0851 148.462ZM46.4855 148V142.46L59.4294 130.475C60.5303 129.41 61.4536 128.451 62.1993 127.599C62.9569 126.746 63.531 125.912 63.9216 125.095C64.3122 124.267 64.5075 123.373 64.5075 122.414C64.5075 121.349 64.2649 120.431 63.7796 119.662C63.2942 118.881 62.6314 118.283 61.7909 117.869C60.9505 117.442 59.9976 117.229 58.9323 117.229C57.8196 117.229 56.8489 117.454 56.0203 117.904C55.1917 118.354 54.5525 118.999 54.1027 119.839C53.6529 120.68 53.428 121.68 53.428 122.84H46.1304C46.1304 120.461 46.669 118.395 47.7462 116.643C48.8234 114.892 50.3326 113.536 52.2739 112.577C54.2152 111.619 56.4524 111.139 58.9855 111.139C61.5897 111.139 63.8565 111.601 65.786 112.524C67.7272 113.436 69.2365 114.702 70.3137 116.324C71.3908 117.946 71.9294 119.804 71.9294 121.899C71.9294 123.272 71.6572 124.628 71.1127 125.965C70.58 127.303 69.6271 128.788 68.254 130.422C66.8809 132.044 64.9455 133.991 62.4479 136.263L57.1389 141.466V141.714H72.4088V148H46.4855ZM92.2375 148.799C89.1835 148.787 86.5557 148.036 84.354 146.544C82.1641 145.053 80.4773 142.892 79.2936 140.063C78.1217 137.234 77.5417 133.831 77.5535 129.854C77.5535 125.888 78.1395 122.509 79.3113 119.715C80.4951 116.922 82.1818 114.797 84.3717 113.341C86.5734 111.873 89.1953 111.139 92.2375 111.139C95.2796 111.139 97.8956 111.873 100.085 113.341C102.287 114.809 103.98 116.939 105.164 119.733C106.347 122.515 106.933 125.888 106.921 129.854C106.921 133.843 106.33 137.252 105.146 140.081C103.974 142.91 102.293 145.07 100.103 146.562C97.9134 148.053 95.2915 148.799 92.2375 148.799ZM92.2375 142.425C94.3208 142.425 95.9839 141.377 97.2268 139.282C98.4697 137.187 99.0853 134.044 99.0734 129.854C99.0734 127.096 98.7893 124.799 98.2211 122.964C97.6648 121.13 96.8717 119.751 95.8419 118.827C94.8239 117.904 93.6224 117.442 92.2375 117.442C90.166 117.442 88.5088 118.478 87.2659 120.55C86.023 122.621 85.3956 125.723 85.3838 129.854C85.3838 132.647 85.662 134.979 86.2183 136.849C86.7865 138.708 87.5855 140.105 88.6153 141.04C89.6452 141.963 90.8525 142.425 92.2375 142.425ZM126.661 148.799C123.607 148.787 120.979 148.036 118.778 146.544C116.588 145.053 114.901 142.892 113.717 140.063C112.546 137.234 111.966 133.831 111.977 129.854C111.977 125.888 112.563 122.509 113.735 119.715C114.919 116.922 116.606 114.797 118.796 113.341C120.997 111.873 123.619 111.139 126.661 111.139C129.703 111.139 132.319 111.873 134.509 113.341C136.711 114.809 138.404 116.939 139.587 119.733C140.771 122.515 141.357 125.888 141.345 129.854C141.345 133.843 140.753 137.252 139.57 140.081C138.398 142.91 136.717 145.07 134.527 146.562C132.337 148.053 129.715 148.799 126.661 148.799ZM126.661 142.425C128.745 142.425 130.408 141.377 131.651 139.282C132.894 137.187 133.509 134.044 133.497 129.854C133.497 127.096 133.213 124.799 132.645 122.964C132.089 121.13 131.296 119.751 130.266 118.827C129.248 117.904 128.046 117.442 126.661 117.442C124.59 117.442 122.933 118.478 121.69 120.55C120.447 122.621 119.819 125.723 119.808 129.854C119.808 132.647 120.086 134.979 120.642 136.849C121.21 138.708 122.009 140.105 123.039 141.04C124.069 141.963 125.276 142.425 126.661 142.425ZM157.694 142.46V117.318H164.05V142.46H157.694ZM148.301 133.067V126.711H173.443V133.067H148.301Z" fill="#EE0033"/>
<path d="M10.5222 183.045H12.5485C12.1074 180.494 9.92773 178.73 7.10245 178.73C3.71467 178.73 1.24094 181.281 1.24094 185.461C1.24094 189.603 3.64435 192.179 7.19194 192.179C10.3688 192.179 12.638 190.095 12.638 186.79V185.301H7.49237V186.931H10.7267C10.682 189.04 9.28853 190.376 7.19194 190.376C4.88441 190.376 3.2033 188.631 3.2033 185.448C3.2033 182.278 4.89719 180.533 7.11523 180.533C8.85387 180.533 10.03 181.491 10.5222 183.045ZM15.6071 192H17.5183V182.182H15.6071V192ZM16.5723 180.667C17.2306 180.667 17.7804 180.156 17.7804 179.529C17.7804 178.903 17.2306 178.385 16.5723 178.385C15.9075 178.385 15.3642 178.903 15.3642 179.529C15.3642 180.156 15.9075 180.667 16.5723 180.667ZM22.9467 192.217C24.5703 192.217 25.4844 191.393 25.8487 190.658H25.9254V192H27.7919V185.48C27.7919 182.623 25.5419 182.054 23.9822 182.054C22.2053 182.054 20.5689 182.77 19.9297 184.56L21.7259 184.969C22.0071 184.272 22.723 183.601 24.0078 183.601C25.2415 183.601 25.8743 184.246 25.8743 185.359V185.403C25.8743 186.1 25.1584 186.087 23.3942 186.292C21.5341 186.509 19.6293 186.995 19.6293 189.226C19.6293 191.156 21.0803 192.217 22.9467 192.217ZM23.3622 190.683C22.282 190.683 21.5021 190.197 21.5021 189.251C21.5021 188.229 22.4098 187.864 23.5156 187.717C24.1357 187.634 25.6058 187.468 25.8807 187.193V188.459C25.8807 189.622 24.9538 190.683 23.3622 190.683ZM34.4732 192.198C37.2409 192.198 39.0499 190.172 39.0499 187.136C39.0499 184.08 37.2409 182.054 34.4732 182.054C31.7054 182.054 29.8965 184.08 29.8965 187.136C29.8965 190.172 31.7054 192.198 34.4732 192.198ZM34.4796 190.594C32.6706 190.594 31.8269 189.015 31.8269 187.129C31.8269 185.25 32.6706 183.652 34.4796 183.652C36.2757 183.652 37.1195 185.25 37.1195 187.129C37.1195 189.015 36.2757 190.594 34.4796 190.594ZM49.6223 192.192C51.4121 192.192 52.1152 191.099 52.4604 190.472H52.6202V192H54.4867V178.909H52.5755V183.773H52.4604C52.1152 183.166 51.4632 182.054 49.6351 182.054C47.2637 182.054 45.5186 183.927 45.5186 187.11C45.5186 190.287 47.2381 192.192 49.6223 192.192ZM50.0442 190.562C48.3375 190.562 47.449 189.06 47.449 187.091C47.449 185.141 48.3184 183.678 50.0442 183.678C51.7125 183.678 52.6074 185.039 52.6074 187.091C52.6074 189.156 51.6934 190.562 50.0442 190.562ZM57.2145 192H59.1257V182.182H57.2145V192ZM58.1797 180.667C58.8381 180.667 59.3878 180.156 59.3878 179.529C59.3878 178.903 58.8381 178.385 58.1797 178.385C57.5149 178.385 56.9716 178.903 56.9716 179.529C56.9716 180.156 57.5149 180.667 58.1797 180.667ZM58.1861 195.388C58.8445 195.388 59.3942 194.876 59.3942 194.25C59.3942 193.624 58.8445 193.106 58.1861 193.106C57.5213 193.106 56.978 193.624 56.978 194.25C56.978 194.876 57.5213 195.388 58.1861 195.388ZM65.8326 192.198C68.1529 192.198 69.655 190.805 69.8659 188.893H68.0059C67.763 189.955 66.9384 190.581 65.8453 190.581C64.2282 190.581 63.1863 189.232 63.1863 187.091C63.1863 184.988 64.2473 183.665 65.8453 183.665C67.0598 183.665 67.8013 184.432 68.0059 185.352H69.8659C69.6614 183.371 68.0442 182.054 65.8134 182.054C63.0456 182.054 61.2559 184.138 61.2559 187.136C61.2559 190.095 62.9817 192.198 65.8326 192.198ZM73.821 186.17C73.821 184.604 74.8118 183.71 76.1733 183.71C77.4901 183.71 78.2763 184.547 78.2763 185.985V192H80.1875V185.755C80.1875 183.307 78.8452 182.054 76.8253 182.054C75.2976 182.054 74.3771 182.719 73.9169 183.78H73.7955V178.909H71.9098V192H73.821V186.17ZM89.4128 186.17C89.4128 184.604 90.4036 183.71 91.7651 183.71C93.0819 183.71 93.8681 184.547 93.8681 185.985V192H95.7793V185.755C95.7793 183.307 94.437 182.054 92.4171 182.054C90.8894 182.054 89.9689 182.719 89.5087 183.78H89.3873V178.909H87.5016V192H89.4128V186.17ZM101.187 192.217C102.811 192.217 103.725 191.393 104.089 190.658H104.166V192H106.032V185.48C106.032 182.623 103.782 182.054 102.222 182.054C100.445 182.054 98.8091 182.77 98.1699 184.56L99.9661 184.969C100.247 184.272 100.963 183.601 102.248 183.601C103.482 183.601 104.115 184.246 104.115 185.359V185.403C104.115 186.1 103.399 186.087 101.634 186.292C99.7743 186.509 97.8695 186.995 97.8695 189.226C97.8695 191.156 99.3205 192.217 101.187 192.217ZM101.602 190.683C100.522 190.683 99.7424 190.197 99.7424 189.251C99.7424 188.229 100.65 187.864 101.756 187.717C102.376 187.634 103.846 187.468 104.121 187.193V188.459C104.121 189.622 103.194 190.683 101.602 190.683ZM101.577 180.871H103.105L101.615 177.925H99.6017L101.577 180.871ZM110.489 186.17C110.489 184.604 111.448 183.71 112.777 183.71C114.075 183.71 114.861 184.56 114.861 185.985V192H116.772V185.755C116.772 183.326 115.436 182.054 113.429 182.054C111.953 182.054 110.988 182.738 110.534 183.78H110.412V182.182H108.578V192H110.489V186.17ZM123.452 195.886C125.951 195.886 127.882 194.742 127.882 192.217V182.182H126.009V183.773H125.868C125.529 183.166 124.852 182.054 123.024 182.054C120.652 182.054 118.907 183.927 118.907 187.053C118.907 190.185 120.691 191.853 123.011 191.853C124.814 191.853 125.51 190.837 125.855 190.21H125.977V192.141C125.977 193.681 124.922 194.346 123.471 194.346C121.88 194.346 121.26 193.547 120.921 192.984L119.278 193.662C119.796 194.864 121.106 195.886 123.452 195.886ZM123.433 190.268C121.726 190.268 120.838 188.957 120.838 187.027C120.838 185.141 121.707 183.678 123.433 183.678C125.101 183.678 125.996 185.039 125.996 187.027C125.996 189.053 125.082 190.268 123.433 190.268ZM139.792 182.182H137.778V179.83H135.867V182.182H134.429V183.716H135.867V189.513C135.861 191.297 137.222 192.16 138.731 192.128C139.338 192.121 139.747 192.006 139.971 191.923L139.626 190.344C139.498 190.37 139.261 190.428 138.954 190.428C138.334 190.428 137.778 190.223 137.778 189.117V183.716H139.792V182.182ZM144.028 186.17C144.028 184.604 145.019 183.71 146.38 183.71C147.697 183.71 148.483 184.547 148.483 185.985V192H150.395V185.755C150.395 183.307 149.052 182.054 147.032 182.054C145.505 182.054 144.584 182.719 144.124 183.78H144.002V178.909H142.117V192H144.028V186.17ZM155.802 192.217C157.426 192.217 158.34 191.393 158.704 190.658H158.781V192H160.647V185.48C160.647 182.623 158.397 182.054 156.838 182.054C155.061 182.054 153.424 182.77 152.785 184.56L154.581 184.969C154.863 184.272 155.578 183.601 156.863 183.601C158.097 183.601 158.73 184.246 158.73 185.359V185.403C158.73 186.1 158.014 186.087 156.25 186.292C154.39 186.509 152.485 186.995 152.485 189.226C152.485 191.156 153.936 192.217 155.802 192.217ZM156.218 190.683C155.137 190.683 154.358 190.197 154.358 189.251C154.358 188.229 155.265 187.864 156.371 187.717C156.991 187.634 158.461 187.468 158.736 187.193V188.459C158.736 189.622 157.809 190.683 156.218 190.683ZM156.147 180.871H157.675L159.657 177.925H157.643L156.147 180.871ZM165.104 186.17C165.104 184.604 166.063 183.71 167.393 183.71C168.69 183.71 169.476 184.56 169.476 185.985V192H171.388V185.755C171.388 183.326 170.052 182.054 168.045 182.054C166.568 182.054 165.603 182.738 165.149 183.78H165.028V182.182H163.193V192H165.104V186.17ZM178.067 195.886C180.567 195.886 182.497 194.742 182.497 192.217V182.182H180.624V183.773H180.483C180.145 183.166 179.467 182.054 177.639 182.054C175.268 182.054 173.523 183.927 173.523 187.053C173.523 190.185 175.306 191.853 177.626 191.853C179.429 191.853 180.126 190.837 180.471 190.21H180.592V192.141C180.592 193.681 179.537 194.346 178.086 194.346C176.495 194.346 175.875 193.547 175.536 192.984L173.893 193.662C174.411 194.864 175.721 195.886 178.067 195.886ZM178.048 190.268C176.341 190.268 175.453 188.957 175.453 187.027C175.453 185.141 176.322 183.678 178.048 183.678C179.716 183.678 180.611 185.039 180.611 187.027C180.611 189.053 179.697 190.268 178.048 190.268Z" fill="#333333"/>
<circle cx="92" cy="36" r="36" fill="#DD242C"/>
<g clip-path="url(#clip0_1092_15711)">
<path d="M78.1409 40.4893C77.4229 40.4893 76.8418 41.0604 76.8418 41.766V54.6184C76.8418 55.324 77.4229 55.8951 78.1409 55.8951H82.038V40.4893H78.1409Z" fill="white"/>
<path d="M108.023 21.6953C107.836 22.1967 107.35 22.5295 106.806 22.5295H102.909V54.6179C102.909 55.3235 102.327 55.8946 101.61 55.8946H92.5161V22.5295H88.619C88.0751 22.5295 87.5892 22.1967 87.4013 21.6953C87.2125 21.194 87.3606 20.6305 87.7746 20.2841L96.8671 12.6238C97.3521 12.2127 98.0726 12.2127 98.5576 12.6238L107.65 20.2841C108.064 20.6305 108.212 21.194 108.023 21.6953Z" fill="white"/>
<path d="M86.0217 30.2754C85.3038 30.2754 84.7227 30.8465 84.7227 31.5521V40.4892V55.895C86.6201 55.895 88.0768 55.895 89.9189 55.895V30.2754H86.0217Z" fill="white"/>
</g>
<defs>
<clipPath id="clip0_1092_15711">
<rect width="31.2632" height="43.5789" fill="white" transform="translate(76.8418 12.3154)"/>
</clipPath>
</defs>
</svg>
