<svg width="225" height="224" viewBox="0 0 225 224" fill="none" xmlns="http://www.w3.org/2000/svg">
<path d="M64.9963 148V142.46L77.9402 130.475C79.041 129.41 79.9643 128.451 80.71 127.599C81.4676 126.746 82.0417 125.912 82.4324 125.095C82.823 124.267 83.0183 123.373 83.0183 122.414C83.0183 121.349 82.7756 120.431 82.2903 119.662C81.805 118.881 81.1421 118.283 80.3017 117.869C79.4612 117.442 78.5083 117.229 77.443 117.229C76.3303 117.229 75.3597 117.454 74.5311 117.904C73.7025 118.354 73.0633 118.999 72.6135 119.839C72.1636 120.68 71.9387 121.68 71.9387 122.84H64.6412C64.6412 120.461 65.1797 118.395 66.2569 116.643C67.3341 114.892 68.8433 113.536 70.7846 112.577C72.7259 111.619 74.9631 111.139 77.4963 111.139C80.1004 111.139 82.3672 111.601 84.2967 112.524C86.238 113.436 87.7472 114.702 88.8244 116.324C89.9016 117.946 90.4402 119.804 90.4402 121.899C90.4402 123.272 90.1679 124.628 89.6234 125.965C89.0907 127.303 88.1378 128.788 86.7647 130.422C85.3916 132.044 83.4563 133.991 80.9586 136.263L75.6497 141.466V141.714H90.9196V148H64.9963ZM110.748 148.799C107.694 148.787 105.066 148.036 102.865 146.544C100.675 145.053 98.988 142.892 97.8043 140.063C96.6325 137.234 96.0524 133.831 96.0643 129.854C96.0643 125.888 96.6502 122.509 97.8221 119.715C99.0058 116.922 100.693 114.797 102.882 113.341C105.084 111.873 107.706 111.139 110.748 111.139C113.79 111.139 116.406 111.873 118.596 113.341C120.798 114.809 122.491 116.939 123.674 119.733C124.858 122.515 125.444 125.888 125.432 129.854C125.432 133.843 124.84 137.252 123.657 140.081C122.485 142.91 120.804 145.07 118.614 146.562C116.424 148.053 113.802 148.799 110.748 148.799ZM110.748 142.425C112.832 142.425 114.495 141.377 115.738 139.282C116.98 137.187 117.596 134.044 117.584 129.854C117.584 127.096 117.3 124.799 116.732 122.964C116.176 121.13 115.382 119.751 114.353 118.827C113.335 117.904 112.133 117.442 110.748 117.442C108.677 117.442 107.02 118.478 105.777 120.55C104.534 122.621 103.906 125.723 103.895 129.854C103.895 132.647 104.173 134.979 104.729 136.849C105.297 138.708 106.096 140.105 107.126 141.04C108.156 141.963 109.363 142.425 110.748 142.425ZM141.781 142.46V117.318H148.137V142.46H141.781ZM132.388 133.067V126.711H157.53V133.067H132.388Z" fill="#EE0033"/>
<path d="M17.6468 190C21.6355 190 23.943 187.526 23.943 183.435C23.943 179.364 21.6355 176.909 17.7811 176.909H13.4089V182.54H11.4529V183.864H13.4089V190H17.6468ZM15.3841 188.274V183.864H17.3272V182.54H15.3841V178.635H17.6596C20.5233 178.635 21.9998 180.348 21.9998 183.435C21.9998 186.536 20.5233 188.274 17.5382 188.274H15.3841ZM30.3814 190.198C33.1491 190.198 34.9581 188.172 34.9581 185.136C34.9581 182.08 33.1491 180.054 30.3814 180.054C27.6136 180.054 25.8047 182.08 25.8047 185.136C25.8047 188.172 27.6136 190.198 30.3814 190.198ZM30.3878 188.594C28.5788 188.594 27.7351 187.015 27.7351 185.129C27.7351 183.25 28.5788 181.652 30.3878 181.652C32.1839 181.652 33.0277 183.25 33.0277 185.129C33.0277 187.015 32.1839 188.594 30.3878 188.594ZM27.0767 179.006H28.9688L30.4006 177.74L31.8196 179.006H33.6989L31.0973 176.788H29.6719L27.0767 179.006ZM33.0149 177.587H34.4148L36.3004 175.254H34.3509L33.0149 177.587ZM37.0914 190H39.0027V180.182H37.0914V190ZM38.0566 178.667C38.715 178.667 39.2647 178.156 39.2647 177.529C39.2647 176.903 38.715 176.385 38.0566 176.385C37.3919 176.385 36.8485 176.903 36.8485 177.529C36.8485 178.156 37.3919 178.667 38.0566 178.667ZM50.9206 180.182H48.9071V177.83H46.9959V180.182H45.5577V181.716H46.9959V187.513C46.9895 189.297 48.351 190.16 49.8596 190.128C50.4668 190.121 50.8759 190.006 51.0996 189.923L50.7544 188.344C50.6266 188.37 50.3901 188.428 50.0833 188.428C49.4632 188.428 48.9071 188.223 48.9071 187.117V181.716H50.9206V180.182ZM55.892 190.217C57.5156 190.217 58.4297 189.393 58.794 188.658H58.8707V190H60.7372V183.48C60.7372 180.623 58.4872 180.054 56.9276 180.054C55.1506 180.054 53.5142 180.77 52.875 182.56L54.6712 182.969C54.9524 182.272 55.6683 181.601 56.9531 181.601C58.1868 181.601 58.8196 182.246 58.8196 183.359V183.403C58.8196 184.1 58.1037 184.087 56.3395 184.292C54.4794 184.509 52.5746 184.995 52.5746 187.226C52.5746 189.156 54.0256 190.217 55.892 190.217ZM56.3075 188.683C55.2273 188.683 54.4474 188.197 54.4474 187.251C54.4474 186.229 55.3551 185.864 56.4609 185.717C57.081 185.634 58.5511 185.468 58.826 185.193V186.459C58.826 187.622 57.8991 188.683 56.3075 188.683ZM56.2372 178.871H57.7649L59.7464 175.925H57.733L56.2372 178.871ZM67.4185 190.198C69.7388 190.198 71.2409 188.805 71.4519 186.893H69.5918C69.3489 187.955 68.5243 188.581 67.4313 188.581C65.8141 188.581 64.7722 187.232 64.7722 185.091C64.7722 182.988 65.8333 181.665 67.4313 181.665C68.6458 181.665 69.3873 182.432 69.5918 183.352H71.4519C71.2473 181.371 69.6301 180.054 67.3993 180.054C64.6316 180.054 62.8418 182.138 62.8418 185.136C62.8418 188.095 64.5676 190.198 67.4185 190.198ZM79.4675 193.682C81.0463 193.682 82.0435 192.857 82.6124 191.31L86.6713 180.201L84.6067 180.182L82.1202 187.801H82.0179L79.5314 180.182H77.486L81.0783 190.128L80.8418 190.78C80.356 192.084 79.6721 192.192 78.6238 191.905L78.1635 193.471C78.3936 193.573 78.8922 193.682 79.4675 193.682ZM97.8191 180.182H95.8056V177.83H93.8944V180.182H92.4561V181.716H93.8944V187.513C93.888 189.297 95.2495 190.16 96.758 190.128C97.3652 190.121 97.7743 190.006 97.998 189.923L97.6529 188.344C97.525 188.37 97.2885 188.428 96.9817 188.428C96.3617 188.428 95.8056 188.223 95.8056 187.117V181.716H97.8191V180.182ZM104.059 190.198C106.201 190.198 107.716 189.143 108.15 187.545L106.341 187.219C105.996 188.146 105.165 188.619 104.078 188.619C102.442 188.619 101.343 187.558 101.292 185.666H108.272V184.989C108.272 181.441 106.15 180.054 103.925 180.054C101.189 180.054 99.3867 182.138 99.3867 185.155C99.3867 188.204 101.164 190.198 104.059 190.198ZM101.298 184.234C101.375 182.841 102.385 181.633 103.938 181.633C105.421 181.633 106.392 182.732 106.399 184.234H101.298ZM100.544 179.006H102.436L103.868 177.74L105.287 179.006H107.166L104.564 176.788H103.139L100.544 179.006ZM106.482 177.587H107.882L109.767 175.254H107.818L106.482 177.587ZM118.966 190.185C120.148 190.185 121.458 189.789 122.341 188.964L123.223 190H125.383L123.523 187.776C124.079 187.034 124.61 185.871 124.61 184.055H122.884C122.884 184.931 122.679 185.711 122.341 186.363L119.72 183.231L120.615 182.572C121.701 181.78 122.353 180.866 122.353 179.619C122.353 178.092 121.12 176.768 119.106 176.768C117.112 176.768 115.801 178.053 115.801 179.862C115.801 181.032 116.415 181.959 117.24 182.962C115.744 183.998 114.728 184.963 114.728 186.523C114.728 188.626 116.332 190.185 118.966 190.185ZM121.267 187.699C120.589 188.261 119.777 188.568 118.972 188.568C117.553 188.568 116.626 187.603 116.626 186.472C116.626 186.069 116.965 185.263 117.988 184.509L118.333 184.254L121.267 187.699ZM118.665 181.959C118.071 181.23 117.604 180.559 117.604 179.894C117.604 179.134 118.23 178.366 119.151 178.366C120.033 178.366 120.608 179.057 120.608 179.67C120.608 180.45 120.18 180.923 119.471 181.39L118.665 181.959ZM135.78 190.198C138.1 190.198 139.602 188.805 139.813 186.893H137.953C137.71 187.955 136.886 188.581 135.793 188.581C134.175 188.581 133.134 187.232 133.134 185.091C133.134 182.988 134.195 181.665 135.793 181.665C137.007 181.665 137.749 182.432 137.953 183.352H139.813C139.609 181.371 137.991 180.054 135.761 180.054C132.993 180.054 131.203 182.138 131.203 185.136C131.203 188.095 132.929 190.198 135.78 190.198ZM143.768 184.17C143.768 182.604 144.759 181.71 146.121 181.71C147.437 181.71 148.224 182.547 148.224 183.985V190H150.135V183.755C150.135 181.307 148.792 180.054 146.773 180.054C145.245 180.054 144.324 180.719 143.864 181.78H143.743V176.909H141.857V190H143.768V184.17ZM155.542 190.217C157.166 190.217 158.08 189.393 158.444 188.658H158.521V190H160.388V183.48C160.388 180.623 158.138 180.054 156.578 180.054C154.801 180.054 153.165 180.77 152.525 182.56L154.322 182.969C154.603 182.272 155.319 181.601 156.604 181.601C157.837 181.601 158.47 182.246 158.47 183.359V183.403C158.47 184.1 157.754 184.087 155.99 184.292C154.13 184.509 152.225 184.995 152.225 187.226C152.225 189.156 153.676 190.217 155.542 190.217ZM155.958 188.683C154.878 188.683 154.098 188.197 154.098 187.251C154.098 186.229 155.006 185.864 156.111 185.717C156.731 185.634 158.202 185.468 158.476 185.193V186.459C158.476 187.622 157.55 188.683 155.958 188.683ZM157.933 176.858C157.933 177.504 157.575 178.072 156.68 178.072C155.773 178.072 155.434 177.497 155.434 176.858H153.868C153.868 178.296 154.961 179.287 156.68 179.287C158.412 179.287 159.506 178.296 159.506 176.858H157.933ZM162.933 190H164.844V183.947C164.844 182.624 165.771 181.703 166.858 181.703C167.919 181.703 168.654 182.406 168.654 183.474V190H170.559V183.742C170.559 182.56 171.281 181.703 172.528 181.703C173.538 181.703 174.369 182.266 174.369 183.595V190H176.28V183.416C176.28 181.173 175.027 180.054 173.25 180.054C171.837 180.054 170.776 180.732 170.303 181.78H170.201C169.773 180.706 168.871 180.054 167.561 180.054C166.263 180.054 165.298 180.7 164.889 181.78H164.768V180.182H162.933V190ZM190.962 182.579C190.566 181.051 189.371 180.054 187.249 180.054C185.031 180.054 183.458 181.224 183.458 182.962C183.458 184.356 184.302 185.283 186.143 185.692L187.805 186.056C188.751 186.267 189.192 186.689 189.192 187.303C189.192 188.063 188.38 188.658 187.127 188.658C185.983 188.658 185.248 188.165 185.018 187.2L183.17 187.482C183.49 189.22 184.935 190.198 187.14 190.198C189.511 190.198 191.154 188.939 191.154 187.162C191.154 185.775 190.272 184.918 188.469 184.503L186.91 184.145C185.83 183.889 185.363 183.525 185.369 182.86C185.363 182.106 186.181 181.569 187.268 181.569C188.457 181.569 189.006 182.227 189.23 182.886L190.962 182.579ZM197.391 190.198C200.159 190.198 201.968 188.172 201.968 185.136C201.968 182.08 200.159 180.054 197.391 180.054C194.623 180.054 192.814 182.08 192.814 185.136C192.814 188.172 194.623 190.198 197.391 190.198ZM197.398 188.594C195.589 188.594 194.745 187.015 194.745 185.129C194.745 183.25 195.589 181.652 197.398 181.652C199.194 181.652 200.037 183.25 200.037 185.129C200.037 187.015 199.194 188.594 197.398 188.594ZM196.605 178.871H198.133L200.114 175.925H198.101L196.605 178.871ZM208.237 190.198C210.557 190.198 212.059 188.805 212.27 186.893H210.41C210.167 187.955 209.343 188.581 208.25 188.581C206.632 188.581 205.591 187.232 205.591 185.091C205.591 182.988 206.652 181.665 208.25 181.665C209.464 181.665 210.206 182.432 210.41 183.352H212.27C212.066 181.371 210.449 180.054 208.218 180.054C205.45 180.054 203.66 182.138 203.66 185.136C203.66 188.095 205.386 190.198 208.237 190.198ZM55.646 209.579C55.2496 208.051 54.0543 207.054 51.9322 207.054C49.7141 207.054 48.1417 208.224 48.1417 209.962C48.1417 211.356 48.9854 212.283 50.8263 212.692L52.4883 213.056C53.4343 213.267 53.8754 213.689 53.8754 214.303C53.8754 215.063 53.0636 215.658 51.8107 215.658C50.6665 215.658 49.9315 215.165 49.7013 214.2L47.854 214.482C48.1737 216.22 49.6183 217.198 51.8235 217.198C54.195 217.198 55.8377 215.939 55.8377 214.162C55.8377 212.775 54.9556 211.918 53.1531 211.503L51.5934 211.145C50.5131 210.889 50.0465 210.525 50.0529 209.86C50.0465 209.106 50.8647 208.569 51.9513 208.569C53.1403 208.569 53.69 209.227 53.9137 209.886L55.646 209.579ZM67.2971 206.709C67.2907 207.917 67.2331 208.531 66.0953 208.665V207.182H64.1777V212.928C64.1841 214.597 62.9441 215.389 61.8702 215.389C60.6877 215.389 59.8695 214.533 59.8695 213.197V207.182H57.9583V213.427C57.9583 215.862 59.2942 217.128 61.1799 217.128C62.6564 217.128 63.66 216.348 64.1138 215.3H64.2161V217H66.0953V209.777C68.0961 209.63 68.7033 208.588 68.7097 206.709H67.2971ZM61.2502 205.871H62.7779L64.7594 202.925H62.7459L61.2502 205.871ZM73.7994 217.198C76.1197 217.198 77.6218 215.805 77.8327 213.893H75.9727C75.7298 214.955 74.9052 215.581 73.8121 215.581C72.195 215.581 71.1531 214.232 71.1531 212.091C71.1531 209.988 72.2141 208.665 73.8121 208.665C75.0266 208.665 75.7681 209.432 75.9727 210.352H77.8327C77.6282 208.371 76.011 207.054 73.7802 207.054C71.0124 207.054 69.2227 209.138 69.2227 212.136C69.2227 215.095 70.9485 217.198 73.7994 217.198ZM84.6403 217H86.5515V213.516L87.5039 212.564L90.8406 217H93.1864L88.9421 211.394L92.918 207.182H90.6296L86.7177 211.337H86.5515V203.909H84.6403V217ZM96.571 211.17C96.571 209.604 97.5618 208.71 98.9233 208.71C100.24 208.71 101.026 209.547 101.026 210.985V217H102.938V210.755C102.938 208.307 101.595 207.054 99.5753 207.054C98.0476 207.054 97.1271 207.719 96.6669 208.78H96.5455V203.909H94.6598V217H96.571V211.17ZM109.624 217.198C112.391 217.198 114.2 215.172 114.2 212.136C114.2 209.08 112.391 207.054 109.624 207.054C106.856 207.054 105.047 209.08 105.047 212.136C105.047 215.172 106.856 217.198 109.624 217.198ZM109.63 215.594C107.821 215.594 106.977 214.015 106.977 212.129C106.977 210.25 107.821 208.652 109.63 208.652C111.426 208.652 112.27 210.25 112.27 212.129C112.27 214.015 111.426 215.594 109.63 215.594ZM110.403 205.827V205.213C111.075 205.111 111.746 204.746 111.739 203.909C111.746 202.867 110.723 202.209 108.793 202.209L108.735 203.263C109.489 203.263 110.084 203.442 110.077 203.903C110.084 204.286 109.745 204.478 108.844 204.523L108.895 205.827H110.403ZM120.565 217.198C122.706 217.198 124.221 216.143 124.656 214.545L122.847 214.219C122.502 215.146 121.671 215.619 120.584 215.619C118.948 215.619 117.849 214.558 117.797 212.666H124.778V211.989C124.778 208.441 122.655 207.054 120.431 207.054C117.695 207.054 115.893 209.138 115.893 212.155C115.893 215.204 117.67 217.198 120.565 217.198ZM117.804 211.234C117.881 209.841 118.89 208.633 120.444 208.633C121.927 208.633 122.898 209.732 122.905 211.234H117.804ZM137.881 212.928C137.888 214.597 136.648 215.389 135.574 215.389C134.391 215.389 133.573 214.533 133.573 213.197V207.182H131.662V213.427C131.662 215.862 132.998 217.128 134.883 217.128C136.36 217.128 137.363 216.348 137.817 215.3H137.92V217H139.799V207.182H137.881V212.928ZM143.575 220.682C145.154 220.682 146.151 219.857 146.72 218.31L150.779 207.201L148.714 207.182L146.228 214.801H146.125L143.639 207.182H141.593L145.186 217.128L144.949 217.78C144.463 219.084 143.779 219.192 142.731 218.905L142.271 220.471C142.501 220.573 143 220.682 143.575 220.682ZM161.926 207.182H159.913V204.83H158.002V207.182H156.564V208.716H158.002V214.513C157.995 216.297 159.357 217.16 160.865 217.128C161.473 217.121 161.882 217.006 162.105 216.923L161.76 215.344C161.632 215.37 161.396 215.428 161.089 215.428C160.469 215.428 159.913 215.223 159.913 214.117V208.716H161.926V207.182ZM164.041 217H165.952V207.182H164.041V217ZM164.22 205.871H165.747L167.729 202.925H165.715L164.22 205.871ZM170.434 211.17C170.434 209.604 171.393 208.71 172.723 208.71C174.02 208.71 174.806 209.56 174.806 210.985V217H176.718V210.755C176.718 208.326 175.382 207.054 173.375 207.054C171.898 207.054 170.933 207.738 170.479 208.78H170.358V207.182H168.523V217H170.434V211.17Z" fill="#333333"/>
<circle cx="112" cy="36" r="36" fill="#DD242C"/>
<path d="M124.139 28.0063C127.671 28.0063 130.534 25.1432 130.534 21.6115C130.534 18.0798 127.671 15.2168 124.139 15.2168C120.607 15.2168 117.744 18.0798 117.744 21.6115C117.744 25.1432 120.607 28.0063 124.139 28.0063Z" fill="white"/>
<path d="M103.356 31.2032C103.355 30.667 103.403 30.1318 103.5 29.6045H98.5598C96.4398 29.6045 94.4067 30.4467 92.9076 31.9457C91.4086 33.4448 90.5664 35.4779 90.5664 37.5979V45.5913C90.5664 46.0153 90.7348 46.422 91.0346 46.7218C91.3345 47.0216 91.7411 47.19 92.1651 47.19H98.5598C98.5616 45.0141 99.1976 42.8858 100.39 41.0658C101.583 39.2457 103.28 37.8128 105.274 36.9425C104.032 35.2865 103.359 33.2732 103.356 31.2032Z" fill="white"/>
<path d="M127.336 29.6045H122.396C122.493 30.1318 122.541 30.667 122.54 31.2032C122.536 33.2732 121.863 35.2865 120.621 36.9425C122.615 37.8128 124.313 39.2457 125.505 41.0658C126.698 42.8858 127.334 45.0141 127.336 47.19H133.73C134.154 47.19 134.561 47.0216 134.861 46.7218C135.161 46.422 135.329 46.0153 135.329 45.5913V37.5979C135.329 35.4779 134.487 33.4448 132.988 31.9457C131.489 30.4467 129.456 29.6045 127.336 29.6045Z" fill="white"/>
<path d="M101.758 28.0063C105.29 28.0063 108.153 25.1432 108.153 21.6115C108.153 18.0798 105.29 15.2168 101.758 15.2168C98.2263 15.2168 95.3633 18.0798 95.3633 21.6115C95.3633 25.1432 98.2263 28.0063 101.758 28.0063Z" fill="white"/>
<path d="M112.947 37.5981C116.479 37.5981 119.342 34.735 119.342 31.2033C119.342 27.6716 116.479 24.8086 112.947 24.8086C109.416 24.8086 106.553 27.6716 106.553 31.2033C106.553 34.735 109.416 37.5981 112.947 37.5981Z" fill="white"/>
<path d="M116.146 39.1973H109.751C107.631 39.1973 105.598 40.0394 104.099 41.5385C102.6 43.0375 101.758 45.0707 101.758 47.1907V55.1841C101.758 55.6081 101.926 56.0147 102.226 56.3146C102.526 56.6144 102.932 56.7828 103.356 56.7828H122.541C122.965 56.7828 123.371 56.6144 123.671 56.3146C123.971 56.0147 124.139 55.6081 124.139 55.1841V47.1907C124.139 46.141 123.933 45.1015 123.531 44.1317C123.129 43.1619 122.54 42.2807 121.798 41.5385C121.056 40.7962 120.175 40.2074 119.205 39.8057C118.235 39.404 117.196 39.1973 116.146 39.1973Z" fill="white"/>
</svg>
