<svg width="261" height="224" viewBox="0 0 261 224" fill="none" xmlns="http://www.w3.org/2000/svg">
<path d="M96.4113 148.497C93.9018 148.497 91.6646 148.036 89.6997 147.112C87.7465 146.189 86.1959 144.916 85.0477 143.295C83.8995 141.673 83.3017 139.815 83.2544 137.719H90.7117C90.7946 139.128 91.3865 140.27 92.4873 141.146C93.5882 142.022 94.8962 142.46 96.4113 142.46C97.6187 142.46 98.684 142.194 99.6073 141.661C100.542 141.117 101.27 140.365 101.791 139.406C102.324 138.436 102.59 137.323 102.59 136.068C102.59 134.79 102.318 133.665 101.774 132.695C101.241 131.724 100.501 130.966 99.5541 130.422C98.6071 129.877 97.524 129.599 96.3048 129.587C95.2394 129.587 94.2037 129.806 93.1975 130.244C92.2032 130.682 91.4279 131.28 90.8715 132.038L84.0356 130.812L85.7579 111.636H107.988V117.922H92.0967L91.1556 127.031H91.3687C92.0079 126.131 92.9726 125.385 94.2629 124.793C95.5531 124.201 96.9972 123.906 98.5953 123.906C100.785 123.906 102.738 124.42 104.455 125.45C106.171 126.48 107.526 127.895 108.521 129.694C109.515 131.481 110.006 133.541 109.994 135.873C110.006 138.323 109.438 140.501 108.29 142.407C107.153 144.301 105.561 145.792 103.514 146.881C101.478 147.959 99.1102 148.497 96.4113 148.497ZM129.614 148.799C126.56 148.787 123.933 148.036 121.731 146.544C119.541 145.053 117.854 142.892 116.671 140.063C115.499 137.234 114.919 133.831 114.93 129.854C114.93 125.888 115.516 122.509 116.688 119.715C117.872 116.922 119.559 114.797 121.749 113.341C123.95 111.873 126.572 111.139 129.614 111.139C132.657 111.139 135.273 111.873 137.462 113.341C139.664 114.809 141.357 116.939 142.541 119.733C143.724 122.515 144.31 125.888 144.298 129.854C144.298 133.843 143.707 137.252 142.523 140.081C141.351 142.91 139.67 145.07 137.48 146.562C135.29 148.053 132.668 148.799 129.614 148.799ZM129.614 142.425C131.698 142.425 133.361 141.377 134.604 139.282C135.847 137.187 136.462 134.044 136.45 129.854C136.45 127.096 136.166 124.799 135.598 122.964C135.042 121.13 134.249 119.751 133.219 118.827C132.201 117.904 130.999 117.442 129.614 117.442C127.543 117.442 125.886 118.478 124.643 120.55C123.4 122.621 122.773 125.723 122.761 129.854C122.761 132.647 123.039 134.979 123.595 136.849C124.163 138.708 124.962 140.105 125.992 141.04C127.022 141.963 128.229 142.425 129.614 142.425ZM160.647 142.46V117.318H167.003V142.46H160.647ZM151.254 133.067V126.711H176.396V133.067H151.254Z" fill="#EE0033"/>
<path d="M2.67747 190H4.65261V185.398H7.33727C10.3735 185.398 11.8756 183.563 11.8756 181.147C11.8756 178.737 10.3863 176.909 7.34366 176.909H2.67747V190ZM4.65261 183.723V178.603H7.13272C9.08869 178.603 9.8877 179.664 9.8877 181.147C9.8877 182.63 9.08869 183.723 7.15829 183.723H4.65261ZM15.949 184.17C15.949 182.604 16.9397 181.71 18.3012 181.71C19.618 181.71 20.4042 182.547 20.4042 183.985V190H22.3154V183.755C22.3154 181.307 20.9731 180.054 18.9532 180.054C17.4255 180.054 16.5051 180.719 16.0448 181.78H15.9234V176.909H14.0377V190H15.949V184.17ZM29.0015 190.198C31.7693 190.198 33.5782 188.172 33.5782 185.136C33.5782 182.08 31.7693 180.054 29.0015 180.054C26.2338 180.054 24.4248 182.08 24.4248 185.136C24.4248 188.172 26.2338 190.198 29.0015 190.198ZM29.0079 188.594C27.199 188.594 26.3552 187.015 26.3552 185.129C26.3552 183.25 27.199 181.652 29.0079 181.652C30.8041 181.652 31.6478 183.25 31.6478 185.129C31.6478 187.015 30.8041 188.594 29.0079 188.594ZM28.26 178.871H29.7877L28.2984 175.925H26.2849L28.26 178.871ZM37.6228 184.17C37.6228 182.604 38.5816 181.71 39.9111 181.71C41.2087 181.71 41.9949 182.56 41.9949 183.985V190H43.9062V183.755C43.9062 181.326 42.5702 180.054 40.5631 180.054C39.0866 180.054 38.1214 180.738 37.6675 181.78H37.5461V180.182H35.7116V190H37.6228V184.17ZM50.5858 193.886C53.0851 193.886 55.0155 192.742 55.0155 190.217V180.182H53.1427V181.773H53.002C52.6633 181.166 51.9857 180.054 50.1576 180.054C47.7861 180.054 46.0411 181.927 46.0411 185.053C46.0411 188.185 47.8245 189.853 50.1448 189.853C51.9474 189.853 52.6441 188.837 52.9893 188.21H53.1107V190.141C53.1107 191.681 52.056 192.346 50.605 192.346C49.0134 192.346 48.3934 191.547 48.0546 190.984L46.4118 191.662C46.9296 192.864 48.24 193.886 50.5858 193.886ZM50.5667 188.268C48.86 188.268 47.9715 186.957 47.9715 185.027C47.9715 183.141 48.8408 181.678 50.5667 181.678C52.235 181.678 53.1299 183.039 53.1299 185.027C53.1299 187.053 52.2158 188.268 50.5667 188.268ZM62.3424 190H64.2536V186.516L65.2061 185.564L68.5427 190H70.8886L66.6443 184.394L70.6201 180.182H68.3318L64.4198 184.337H64.2536V176.909H62.3424V190ZM74.2732 184.17C74.2732 182.604 75.2639 181.71 76.6254 181.71C77.9422 181.71 78.7284 182.547 78.7284 183.985V190H80.6396V183.755C80.6396 181.307 79.2973 180.054 77.2774 180.054C75.7497 180.054 74.8293 180.719 74.3691 181.78H74.2476V176.909H72.3619V190H74.2732V184.17ZM86.0473 190.217C87.6709 190.217 88.585 189.393 88.9493 188.658H89.026V190H90.8925V183.48C90.8925 180.623 88.6425 180.054 87.0828 180.054C85.3058 180.054 83.6695 180.77 83.0303 182.56L84.8264 182.969C85.1077 182.272 85.8236 181.601 87.1084 181.601C88.3421 181.601 88.9749 182.246 88.9749 183.359V183.403C88.9749 184.1 88.259 184.087 86.4948 184.292C84.6347 184.509 82.7298 184.995 82.7298 187.226C82.7298 189.156 84.1808 190.217 86.0473 190.217ZM86.4628 188.683C85.3825 188.683 84.6027 188.197 84.6027 187.251C84.6027 186.229 85.5104 185.864 86.6162 185.717C87.2362 185.634 88.7064 185.468 88.9813 185.193V186.459C88.9813 187.622 88.0544 188.683 86.4628 188.683ZM86.3925 178.871H87.9202L89.9017 175.925H87.8882L86.3925 178.871ZM93.4381 190H95.3493V183.947C95.3493 182.624 96.2762 181.703 97.3628 181.703C98.4239 181.703 99.159 182.406 99.159 183.474V190H101.064V183.742C101.064 182.56 101.786 181.703 103.033 181.703C104.043 181.703 104.873 182.266 104.873 183.595V190H106.785V183.416C106.785 181.173 105.532 180.054 103.755 180.054C102.342 180.054 101.281 180.732 100.808 181.78H100.706C100.278 180.706 99.3763 180.054 98.066 180.054C96.7684 180.054 95.8032 180.7 95.3941 181.78H95.2726V180.182H93.4381V190ZM117.92 190.185C119.102 190.185 120.413 189.789 121.295 188.964L122.177 190H124.337L122.477 187.776C123.033 187.034 123.564 185.871 123.564 184.055H121.838C121.838 184.931 121.633 185.711 121.295 186.363L118.674 183.231L119.569 182.572C120.655 181.78 121.307 180.866 121.307 179.619C121.307 178.092 120.074 176.768 118.06 176.768C116.066 176.768 114.756 178.053 114.756 179.862C114.756 181.032 115.369 181.959 116.194 182.962C114.698 183.998 113.682 184.963 113.682 186.523C113.682 188.626 115.286 190.185 117.92 190.185ZM120.221 187.699C119.543 188.261 118.731 188.568 117.926 188.568C116.507 188.568 115.58 187.603 115.58 186.472C115.58 186.069 115.919 185.263 116.942 184.509L117.287 184.254L120.221 187.699ZM117.619 181.959C117.025 181.23 116.558 180.559 116.558 179.894C116.558 179.134 117.185 178.366 118.105 178.366C118.987 178.366 119.562 179.057 119.562 179.67C119.562 180.45 119.134 180.923 118.425 181.39L117.619 181.959ZM134.734 190.198C137.054 190.198 138.556 188.805 138.767 186.893H136.907C136.664 187.955 135.84 188.581 134.747 188.581C133.13 188.581 132.088 187.232 132.088 185.091C132.088 182.988 133.149 181.665 134.747 181.665C135.961 181.665 136.703 182.432 136.907 183.352H138.767C138.563 181.371 136.946 180.054 134.715 180.054C131.947 180.054 130.157 182.138 130.157 185.136C130.157 188.095 131.883 190.198 134.734 190.198ZM149.019 179.498C149.019 180.463 148.903 181.185 148.322 181.505C147.523 180.578 146.359 180.054 144.947 180.054C142.179 180.054 140.37 182.08 140.37 185.136C140.37 188.172 142.179 190.198 144.947 190.198C147.715 190.198 149.524 188.172 149.524 185.136C149.524 184.132 149.325 183.237 148.967 182.496C150.054 182.029 150.495 180.974 150.495 179.498H149.019ZM144.953 188.594C143.144 188.594 142.301 187.015 142.301 185.129C142.301 183.25 143.144 181.652 144.953 181.652C146.749 181.652 147.593 183.25 147.593 185.129C147.593 187.015 146.749 188.594 144.953 188.594ZM163.901 182.579C163.505 181.051 162.309 180.054 160.187 180.054C157.969 180.054 156.397 181.224 156.397 182.962C156.397 184.356 157.24 185.283 159.081 185.692L160.743 186.056C161.689 186.267 162.13 186.689 162.13 187.303C162.13 188.063 161.318 188.658 160.066 188.658C158.921 188.658 158.186 188.165 157.956 187.2L156.109 187.482C156.429 189.22 157.873 190.198 160.078 190.198C162.45 190.198 164.093 188.939 164.093 187.162C164.093 185.775 163.21 184.918 161.408 184.503L159.848 184.145C158.768 183.889 158.301 183.525 158.308 182.86C158.301 182.106 159.12 181.569 160.206 181.569C161.395 181.569 161.945 182.227 162.169 182.886L163.901 182.579ZM174.401 179.498C174.401 180.463 174.286 181.185 173.705 181.505C172.906 180.578 171.742 180.054 170.33 180.054C167.562 180.054 165.753 182.08 165.753 185.136C165.753 188.172 167.562 190.198 170.33 190.198C173.097 190.198 174.906 188.172 174.906 185.136C174.906 184.132 174.708 183.237 174.35 182.496C175.437 182.029 175.878 180.974 175.878 179.498H174.401ZM170.336 188.594C168.527 188.594 167.683 187.015 167.683 185.129C167.683 183.25 168.527 181.652 170.336 181.652C172.132 181.652 172.976 183.25 172.976 185.129C172.976 187.015 172.132 188.594 170.336 188.594ZM171.109 178.827V178.213C171.781 178.111 172.452 177.746 172.445 176.909C172.452 175.867 171.429 175.209 169.499 175.209L169.441 176.263C170.195 176.263 170.79 176.442 170.783 176.903C170.79 177.286 170.451 177.478 169.55 177.523L169.601 178.827H171.109ZM186.062 190.198C188.382 190.198 189.884 188.805 190.095 186.893H188.235C187.992 187.955 187.168 188.581 186.075 188.581C184.458 188.581 183.416 187.232 183.416 185.091C183.416 182.988 184.477 181.665 186.075 181.665C187.289 181.665 188.031 182.432 188.235 183.352H190.095C189.891 181.371 188.274 180.054 186.043 180.054C183.275 180.054 181.485 182.138 181.485 185.136C181.485 188.095 183.211 190.198 186.062 190.198ZM198.359 185.928C198.365 187.597 197.125 188.389 196.051 188.389C194.869 188.389 194.051 187.533 194.051 186.197V180.182H192.139V186.427C192.139 188.862 193.475 190.128 195.361 190.128C196.837 190.128 197.841 189.348 198.295 188.3H198.397V190H200.276V180.182H198.359V185.928ZM204.756 184.17C204.756 182.604 205.714 181.71 207.044 181.71C208.342 181.71 209.128 182.56 209.128 183.985V190H211.039V183.755C211.039 181.326 209.703 180.054 207.696 180.054C206.219 180.054 205.254 180.738 204.8 181.78H204.679V180.182H202.844V190H204.756V184.17ZM217.719 193.886C220.218 193.886 222.148 192.742 222.148 190.217V180.182H220.275V181.773H220.135C219.796 181.166 219.119 180.054 217.29 180.054C214.919 180.054 213.174 181.927 213.174 185.053C213.174 188.185 214.957 189.853 217.278 189.853C219.08 189.853 219.777 188.837 220.122 188.21H220.244V190.141C220.244 191.681 219.189 192.346 217.738 192.346C216.146 192.346 215.526 191.547 215.187 190.984L213.545 191.662C214.062 192.864 215.373 193.886 217.719 193.886ZM217.699 188.268C215.993 188.268 215.104 186.957 215.104 185.027C215.104 183.141 215.974 181.678 217.699 181.678C219.368 181.678 220.263 183.039 220.263 185.027C220.263 187.053 219.349 188.268 217.699 188.268ZM233.611 190.198C235.931 190.198 237.433 188.805 237.644 186.893H235.784C235.541 187.955 234.717 188.581 233.624 188.581C232.006 188.581 230.965 187.232 230.965 185.091C230.965 182.988 232.026 181.665 233.624 181.665C234.838 181.665 235.58 182.432 235.784 183.352H237.644C237.44 181.371 235.823 180.054 233.592 180.054C230.824 180.054 229.034 182.138 229.034 185.136C229.034 188.095 230.76 190.198 233.611 190.198ZM242.545 190.217C244.169 190.217 245.083 189.393 245.447 188.658H245.524V190H247.391V183.48C247.391 180.623 245.141 180.054 243.581 180.054C241.804 180.054 240.168 180.77 239.528 182.56L241.324 182.969C241.606 182.272 242.322 181.601 243.606 181.601C244.84 181.601 245.473 182.246 245.473 183.359V183.403C245.473 184.1 244.757 184.087 242.993 184.292C241.133 184.509 239.228 184.995 239.228 187.226C239.228 189.156 240.679 190.217 242.545 190.217ZM242.961 188.683C241.881 188.683 241.101 188.197 241.101 187.251C241.101 186.229 242.008 185.864 243.114 185.717C243.734 185.634 245.204 185.468 245.479 185.193V186.459C245.479 187.622 244.552 188.683 242.961 188.683ZM240.372 179.006H242.264L243.696 177.74L245.115 179.006H246.994L244.393 176.788H242.967L240.372 179.006ZM246.31 177.587H247.71L249.596 175.254H247.646L246.31 177.587ZM249.936 193.682H251.847V188.472H251.962C252.308 189.099 253.011 190.192 254.801 190.192C257.178 190.192 258.904 188.287 258.904 185.11C258.904 181.927 257.153 180.054 254.781 180.054C252.96 180.054 252.301 181.166 251.962 181.773H251.803V180.182H249.936V193.682ZM251.809 185.091C251.809 183.039 252.704 181.678 254.372 181.678C256.104 181.678 256.974 183.141 256.974 185.091C256.974 187.06 256.079 188.562 254.372 188.562C252.729 188.562 251.809 187.156 251.809 185.091ZM39.1409 217.192C40.9307 217.192 41.6338 216.099 41.979 215.472H42.1388V217H44.0052V203.909H42.094V208.773H41.979C41.6338 208.166 40.9818 207.054 39.1537 207.054C36.7822 207.054 35.0372 208.927 35.0372 212.11C35.0372 215.287 36.7567 217.192 39.1409 217.192ZM39.5628 215.562C37.8561 215.562 36.9676 214.06 36.9676 212.091C36.9676 210.141 37.8369 208.678 39.5628 208.678C41.2311 208.678 42.126 210.039 42.126 212.091C42.126 214.156 41.2119 215.562 39.5628 215.562ZM46.733 217H48.6443V207.182H46.733V217ZM47.6982 205.667C48.3566 205.667 48.9063 205.156 48.9063 204.529C48.9063 203.903 48.3566 203.385 47.6982 203.385C47.0335 203.385 46.4901 203.903 46.4901 204.529C46.4901 205.156 47.0335 205.667 47.6982 205.667ZM47.7046 220.388C48.363 220.388 48.9127 219.876 48.9127 219.25C48.9127 218.624 48.363 218.106 47.7046 218.106C47.0399 218.106 46.4965 218.624 46.4965 219.25C46.4965 219.876 47.0399 220.388 47.7046 220.388ZM55.3511 217.198C57.6714 217.198 59.1736 215.805 59.3845 213.893H57.5244C57.2815 214.955 56.4569 215.581 55.3639 215.581C53.7467 215.581 52.7048 214.232 52.7048 212.091C52.7048 209.988 53.7659 208.665 55.3639 208.665C56.5784 208.665 57.3199 209.432 57.5244 210.352H59.3845C59.18 208.371 57.5628 207.054 55.3319 207.054C52.5642 207.054 50.7744 209.138 50.7744 212.136C50.7744 215.095 52.5003 217.198 55.3511 217.198ZM63.3396 211.17C63.3396 209.604 64.3303 208.71 65.6919 208.71C67.0086 208.71 67.7948 209.547 67.7948 210.985V217H69.7061V210.755C69.7061 208.307 68.3637 207.054 66.3438 207.054C64.8161 207.054 63.8957 207.719 63.4355 208.78H63.314V203.909H61.4284V217H63.3396V211.17ZM85.4193 207.182H83.3675L80.8873 214.737H80.7851L78.2986 207.182H76.2467L79.8135 217H81.8589L85.4193 207.182ZM93.4349 212.928C93.4413 214.597 92.2013 215.389 91.1274 215.389C89.9449 215.389 89.1267 214.533 89.1267 213.197V207.182H87.2155V213.427C87.2155 215.862 88.5514 217.128 90.4371 217.128C91.9136 217.128 92.9172 216.348 93.371 215.3H93.4733V217H95.3525V207.182H93.4349V212.928ZM91.4278 220.388C92.0862 220.388 92.6359 219.876 92.6359 219.25C92.6359 218.624 92.0862 218.106 91.4278 218.106C90.7631 218.106 90.2197 218.624 90.2197 219.25C90.2197 219.876 90.7631 220.388 91.4278 220.388ZM107.267 207.182H105.254V204.83H103.343V207.182H101.904V208.716H103.343V214.513C103.336 216.297 104.698 217.16 106.206 217.128C106.813 217.121 107.223 217.006 107.446 216.923L107.101 215.344C106.973 215.37 106.737 215.428 106.43 215.428C105.81 215.428 105.254 215.223 105.254 214.117V208.716H107.267V207.182ZM109.381 217H111.293V211.004C111.293 209.719 112.283 208.793 113.639 208.793C114.035 208.793 114.482 208.863 114.636 208.908V207.08C114.444 207.054 114.067 207.035 113.824 207.035C112.673 207.035 111.689 207.687 111.331 208.741H111.229V207.182H109.381V217ZM120.17 217.198C122.311 217.198 123.826 216.143 124.261 214.545L122.452 214.219C122.106 215.146 121.275 215.619 120.189 215.619C118.552 215.619 117.453 214.558 117.402 212.666H124.382V211.989C124.382 208.441 122.26 207.054 120.035 207.054C117.3 207.054 115.497 209.138 115.497 212.155C115.497 215.204 117.274 217.198 120.17 217.198ZM117.408 211.234C117.485 209.841 118.495 208.633 120.048 208.633C121.531 208.633 122.503 209.732 122.509 211.234H117.408ZM118.648 206.006L119.965 204.293L121.275 206.006H123.008V205.91L120.758 203.2H119.166L116.922 205.91V206.006H118.648ZM128.414 211.17C128.414 209.604 129.373 208.71 130.702 208.71C132 208.71 132.786 209.56 132.786 210.985V217H134.697V210.755C134.697 208.326 133.361 207.054 131.354 207.054C129.878 207.054 128.912 207.738 128.459 208.78H128.337V207.182H126.503V217H128.414V211.17ZM146.607 207.182H144.594V204.83H142.682V207.182H141.244V208.716H142.682V214.513C142.676 216.297 144.038 217.16 145.546 217.128C146.153 217.121 146.562 217.006 146.786 216.923L146.441 215.344C146.313 215.37 146.077 215.428 145.77 215.428C145.15 215.428 144.594 215.223 144.594 214.117V208.716H146.607V207.182ZM152.752 217.198C155.519 217.198 157.328 215.172 157.328 212.136C157.328 209.08 155.519 207.054 152.752 207.054C149.984 207.054 148.175 209.08 148.175 212.136C148.175 215.172 149.984 217.198 152.752 217.198ZM152.758 215.594C150.949 215.594 150.105 214.015 150.105 212.129C150.105 210.25 150.949 208.652 152.758 208.652C154.554 208.652 155.398 210.25 155.398 212.129C155.398 214.015 154.554 215.594 152.758 215.594ZM162.319 217.217C163.942 217.217 164.856 216.393 165.221 215.658H165.297V217H167.164V210.48C167.164 207.623 164.914 207.054 163.354 207.054C161.577 207.054 159.941 207.77 159.302 209.56L161.098 209.969C161.379 209.272 162.095 208.601 163.38 208.601C164.614 208.601 165.246 209.246 165.246 210.359V210.403C165.246 211.1 164.53 211.087 162.766 211.292C160.906 211.509 159.001 211.995 159.001 214.226C159.001 216.156 160.452 217.217 162.319 217.217ZM162.734 215.683C161.654 215.683 160.874 215.197 160.874 214.251C160.874 213.229 161.782 212.864 162.888 212.717C163.508 212.634 164.978 212.468 165.253 212.193V213.459C165.253 214.622 164.326 215.683 162.734 215.683ZM162.709 205.871H164.236L162.747 202.925H160.734L162.709 205.871ZM171.621 211.17C171.621 209.604 172.58 208.71 173.909 208.71C175.207 208.71 175.993 209.56 175.993 210.985V217H177.904V210.755C177.904 208.326 176.568 207.054 174.561 207.054C173.085 207.054 172.119 207.738 171.666 208.78H171.544V207.182H169.71V217H171.621V211.17ZM193.771 220.682V207.182H191.904V208.773H191.745C191.406 208.166 190.747 207.054 188.926 207.054C186.554 207.054 184.803 208.927 184.803 212.11C184.803 215.287 186.529 217.192 188.907 217.192C190.696 217.192 191.399 216.099 191.745 215.472H191.86V220.682H193.771ZM191.898 212.091C191.898 214.156 190.978 215.562 189.335 215.562C187.628 215.562 186.733 214.06 186.733 212.091C186.733 210.141 187.603 208.678 189.335 208.678C191.003 208.678 191.898 210.039 191.898 212.091ZM202.56 212.928C202.566 214.597 201.326 215.389 200.252 215.389C199.07 215.389 198.252 214.533 198.252 213.197V207.182H196.34V213.427C196.34 215.862 197.676 217.128 199.562 217.128C201.039 217.128 202.042 216.348 202.496 215.3H202.598V217H204.478V207.182H202.56V212.928ZM211.181 217.198C213.949 217.198 215.758 215.172 215.758 212.136C215.758 209.08 213.949 207.054 211.181 207.054C208.413 207.054 206.604 209.08 206.604 212.136C206.604 215.172 208.413 217.198 211.181 217.198ZM211.188 215.594C209.379 215.594 208.535 214.015 208.535 212.129C208.535 210.25 209.379 208.652 211.188 208.652C212.984 208.652 213.828 210.25 213.828 212.129C213.828 214.015 212.984 215.594 211.188 215.594ZM207.877 206.006H209.769L211.2 204.74L212.619 206.006H214.499L211.897 203.788H210.472L207.877 206.006ZM213.815 204.587H215.215L217.1 202.254H215.151L213.815 204.587ZM222.027 217.198C224.347 217.198 225.849 215.805 226.06 213.893H224.2C223.957 214.955 223.133 215.581 222.04 215.581C220.422 215.581 219.381 214.232 219.381 212.091C219.381 209.988 220.442 208.665 222.04 208.665C223.254 208.665 223.996 209.432 224.2 210.352H226.06C225.856 208.371 224.239 207.054 222.008 207.054C219.24 207.054 217.45 209.138 217.45 212.136C217.45 215.095 219.176 217.198 222.027 217.198Z" fill="#333333"/>
<circle cx="130" cy="36" r="36" fill="#DD242C"/>
<g clip-path="url(#clip0_1092_15741)">
<path fill-rule="evenodd" clip-rule="evenodd" d="M136.768 18.0002L136.768 18L123.232 18.0001L123.232 18.0003V29.2323L112 29.2324V29.2326V42.7677H112H123.232L123.232 53.9999L123.232 54L136.768 53.9999H136.768V42.7677L148 42.7676L148 29.2323H136.768L136.768 18.0002Z" fill="white"/>
</g>
<defs>
<clipPath id="clip0_1092_15741">
<rect width="36" height="36" fill="white" transform="translate(112 18)"/>
</clipPath>
</defs>
</svg>
