<svg width="454" height="73" viewBox="0 0 454 73" fill="none" xmlns="http://www.w3.org/2000/svg">
<path d="M0.667614 22.4545H6.23864L19.3381 54.4503H19.7898L32.8892 22.4545H38.4602V61H34.0938V31.7145H33.7173L21.6719 61H17.456L5.41051 31.7145H5.03409V61H0.667614V22.4545ZM65.4355 49.1804V32.0909H69.8772V61H65.4355V56.1065H65.1343C64.4568 57.5746 63.4028 58.823 61.9724 59.8519C60.542 60.8683 58.7352 61.3764 56.5519 61.3764C54.7451 61.3764 53.1391 60.9812 51.7338 60.1907C50.3285 59.3877 49.2243 58.1831 48.4213 56.5771C47.6182 54.9585 47.2167 52.9195 47.2167 50.4602V32.0909H51.6585V50.1591C51.6585 52.267 52.2482 53.9484 53.4276 55.2031C54.6196 56.4579 56.1379 57.0852 57.9823 57.0852C59.0865 57.0852 60.2095 56.8029 61.3513 56.2383C62.5057 55.6737 63.4718 54.8079 64.2497 53.641C65.0402 52.4741 65.4355 50.9872 65.4355 49.1804ZM86.5197 61.6776C84.6878 61.6776 83.0253 61.3325 81.5321 60.6424C80.039 59.9397 78.8533 58.9297 77.975 57.6122C77.0967 56.2822 76.6575 54.6761 76.6575 52.794C76.6575 51.1378 76.9837 49.7952 77.6362 48.7663C78.2886 47.7249 79.1607 46.9093 80.2523 46.3196C81.3439 45.7299 82.5485 45.2907 83.8659 45.0021C85.196 44.701 86.5323 44.4626 87.8748 44.2869C89.6315 44.0611 91.0556 43.8917 92.1472 43.7788C93.2514 43.6533 94.0544 43.4463 94.5563 43.1577C95.0707 42.8691 95.3279 42.3672 95.3279 41.652V41.5014C95.3279 39.6444 94.8198 38.2015 93.8034 37.1726C92.7997 36.1437 91.2752 35.6293 89.2299 35.6293C87.1094 35.6293 85.4469 36.0935 84.2424 37.022C83.0378 37.9505 82.1909 38.9418 81.7015 39.9957L77.4856 38.4901C78.2385 36.7334 79.2422 35.3658 80.497 34.3871C81.7643 33.3958 83.1445 32.7057 84.6376 32.3168C86.1433 31.9152 87.6239 31.7145 89.0794 31.7145C90.0079 31.7145 91.0744 31.8274 92.2789 32.0533C93.496 32.2666 94.6692 32.712 95.7985 33.3896C96.9403 34.0671 97.8876 35.0897 98.6404 36.4574C99.3933 37.825 99.7697 39.657 99.7697 41.9531V61H95.3279V57.0852H95.1021C94.801 57.7126 94.2991 58.3839 93.5964 59.0991C92.8938 59.8143 91.959 60.4228 90.7921 60.9247C89.6252 61.4266 88.2011 61.6776 86.5197 61.6776ZM87.1973 57.6875C88.9539 57.6875 90.4345 57.3424 91.639 56.6523C92.8561 55.9622 93.7721 55.0714 94.3869 53.9798C95.0143 52.8881 95.3279 51.7401 95.3279 50.5355V46.4702C95.1397 46.696 94.7257 46.9031 94.0858 47.0913C93.4584 47.2669 92.7306 47.4238 91.9025 47.5618C91.0869 47.6873 90.2902 47.8002 89.5123 47.9006C88.7469 47.9884 88.1258 48.0637 87.649 48.1264C86.4946 48.277 85.4155 48.5217 84.4118 48.8604C83.4205 49.1867 82.6175 49.6823 82.0027 50.3473C81.4004 50.9998 81.0993 51.8906 81.0993 53.0199C81.0993 54.5632 81.6702 55.7301 82.812 56.5206C83.9663 57.2985 85.4281 57.6875 87.1973 57.6875Z" fill="#333333"/>
<path d="M149.276 29.9134C149.106 28.1946 148.374 26.8594 147.081 25.9077C145.789 24.956 144.035 24.4801 141.819 24.4801C140.313 24.4801 139.042 24.6932 138.005 25.1193C136.968 25.5312 136.172 26.1065 135.618 26.8452C135.079 27.5838 134.809 28.4219 134.809 29.3594C134.78 30.1406 134.944 30.8224 135.299 31.4048C135.668 31.9872 136.172 32.4915 136.812 32.9176C137.451 33.3295 138.189 33.6918 139.027 34.0043C139.866 34.3026 140.76 34.5582 141.712 34.7713L145.633 35.7088C147.536 36.1349 149.283 36.7031 150.874 37.4134C152.465 38.1236 153.843 38.9972 155.008 40.0341C156.172 41.071 157.074 42.2926 157.714 43.6989C158.367 45.1051 158.701 46.7173 158.715 48.5355C158.701 51.206 158.019 53.5213 156.669 55.4815C155.334 57.4276 153.402 58.9403 150.874 60.0199C148.36 61.0852 145.327 61.6179 141.776 61.6179C138.253 61.6179 135.185 61.0781 132.571 59.9986C129.972 58.919 127.941 57.321 126.478 55.2045C125.029 53.0739 124.269 50.4389 124.198 47.2997H133.125C133.225 48.7628 133.644 49.9844 134.383 50.9645C135.135 51.9304 136.137 52.6619 137.387 53.1591C138.651 53.642 140.079 53.8835 141.669 53.8835C143.232 53.8835 144.589 53.6562 145.739 53.2017C146.904 52.7472 147.806 52.1151 148.445 51.3054C149.084 50.4957 149.404 49.5653 149.404 48.5142C149.404 47.5341 149.113 46.7102 148.53 46.0426C147.962 45.375 147.124 44.8068 146.016 44.3381C144.922 43.8693 143.58 43.4432 141.989 43.0597L137.238 41.8665C133.559 40.9716 130.654 39.5724 128.523 37.669C126.392 35.7656 125.334 33.2017 125.348 29.9773C125.334 27.3352 126.037 25.027 127.458 23.0526C128.892 21.0781 130.86 19.5369 133.36 18.429C135.86 17.321 138.701 16.767 141.883 16.767C145.121 16.767 147.948 17.321 150.363 18.429C152.792 19.5369 154.681 21.0781 156.03 23.0526C157.38 25.027 158.076 27.3139 158.118 29.9134H149.276ZM205.34 15.7869H211.199C211.199 18.6989 210.808 21.1847 210.027 23.2443C209.26 25.304 207.932 26.8807 206.043 27.9744C204.168 29.054 201.561 29.5938 198.223 29.5938V24.821C200.396 24.821 201.987 24.4588 202.996 23.7344C204.004 23.0099 204.644 21.973 204.913 20.6236C205.198 19.2741 205.34 17.6619 205.34 15.7869ZM191.874 17.3636H201.1V45.7017C201.1 48.8835 200.34 51.6676 198.82 54.054C197.314 56.4403 195.205 58.3011 192.492 59.6364C189.778 60.9574 186.618 61.6179 183.01 61.6179C179.388 61.6179 176.22 60.9574 173.507 59.6364C170.794 58.3011 168.685 56.4403 167.179 54.054C165.673 51.6676 164.921 48.8835 164.921 45.7017V17.3636H174.146V44.9134C174.146 46.5753 174.509 48.0526 175.233 49.3452C175.972 50.6378 177.009 51.6534 178.344 52.392C179.679 53.1307 181.234 53.5 183.01 53.5C184.8 53.5 186.355 53.1307 187.676 52.392C189.011 51.6534 190.041 50.6378 190.766 49.3452C191.504 48.0526 191.874 46.5753 191.874 44.9134V17.3636ZM179.75 13.1449L184.267 3.45028H192.662L186.163 13.1449H179.75ZM253.637 32.6406H244.304C244.134 31.4332 243.786 30.3608 243.26 29.4233C242.735 28.4716 242.06 27.6619 241.236 26.9943C240.412 26.3267 239.461 25.8153 238.381 25.4602C237.316 25.1051 236.158 24.9276 234.908 24.9276C232.65 24.9276 230.682 25.4886 229.006 26.6108C227.33 27.7187 226.03 29.3381 225.107 31.4688C224.184 33.5852 223.722 36.1562 223.722 39.1818C223.722 42.2926 224.184 44.9062 225.107 47.0227C226.044 49.1392 227.351 50.7372 229.027 51.8168C230.704 52.8963 232.642 53.4361 234.844 53.4361C236.08 53.4361 237.223 53.2727 238.275 52.946C239.34 52.6193 240.285 52.1435 241.108 51.5185C241.932 50.8793 242.614 50.1051 243.154 49.196C243.708 48.2869 244.091 47.25 244.304 46.0852L253.637 46.1278C253.395 48.1307 252.792 50.0625 251.826 51.9233C250.874 53.7699 249.589 55.4247 247.969 56.8878C246.364 58.3366 244.446 59.4872 242.216 60.3395C240 61.1776 237.493 61.5966 234.695 61.5966C230.803 61.5966 227.323 60.7159 224.255 58.9545C221.201 57.1932 218.786 54.6435 217.01 51.3054C215.249 47.9673 214.368 43.9261 214.368 39.1818C214.368 34.4233 215.263 30.375 217.053 27.0369C218.843 23.6989 221.272 21.1562 224.34 19.4091C227.408 17.6477 230.86 16.767 234.695 16.767C237.223 16.767 239.567 17.1222 241.726 17.8324C243.9 18.5426 245.824 19.5795 247.5 20.9432C249.177 22.2926 250.54 23.9474 251.591 25.9077C252.657 27.8679 253.339 30.1122 253.637 32.6406ZM274.139 61V17.3636H283.365V36.6037H283.94L299.644 17.3636H310.702L294.509 36.902L310.894 61H299.857L287.903 43.0597L283.365 48.5994V61H274.139ZM315.506 61V17.3636H324.732V35.3679H343.461V17.3636H352.666V61H343.461V42.9744H324.732V61H315.506ZM400.372 39.1818C400.372 43.9403 399.47 47.9886 397.666 51.3267C395.876 54.6648 393.433 57.2145 390.336 58.9759C387.254 60.723 383.788 61.5966 379.938 61.5966C376.06 61.5966 372.58 60.7159 369.498 58.9545C366.416 57.1932 363.979 54.6435 362.19 51.3054C360.4 47.9673 359.505 43.9261 359.505 39.1818C359.505 34.4233 360.4 30.375 362.19 27.0369C363.979 23.6989 366.416 21.1562 369.498 19.4091C372.58 17.6477 376.06 16.767 379.938 16.767C383.788 16.767 387.254 17.6477 390.336 19.4091C393.433 21.1562 395.876 23.6989 397.666 27.0369C399.47 30.375 400.372 34.4233 400.372 39.1818ZM391.018 39.1818C391.018 36.0994 390.556 33.5 389.633 31.3835C388.724 29.267 387.438 27.6619 385.776 26.5682C384.114 25.4744 382.168 24.9276 379.938 24.9276C377.708 24.9276 375.762 25.4744 374.1 26.5682C372.438 27.6619 371.146 29.267 370.222 31.3835C369.313 33.5 368.859 36.0994 368.859 39.1818C368.859 42.2642 369.313 44.8636 370.222 46.9801C371.146 49.0966 372.438 50.7017 374.1 51.7955C375.762 52.8892 377.708 53.4361 379.938 53.4361C382.168 53.4361 384.114 52.8892 385.776 51.7955C387.438 50.7017 388.724 49.0966 389.633 46.9801C390.556 44.8636 391.018 42.2642 391.018 39.1818ZM383.283 12.6761H376.551L376.082 8.84091C377.587 8.76989 378.66 8.57102 379.299 8.24432C379.938 7.90341 380.251 7.45596 380.237 6.90199C380.251 6.13494 379.846 5.61648 379.022 5.34659C378.212 5.0767 377.197 4.94176 375.975 4.94176L376.21 0.82954C380.002 0.82954 382.886 1.34091 384.86 2.36364C386.849 3.38636 387.836 4.80682 387.822 6.625C387.836 7.91761 387.367 8.89773 386.416 9.56534C385.478 10.2187 384.434 10.6307 383.283 10.8011V12.6761ZM407.206 61V17.3636H436.609V24.9702H416.432V35.3679H435.096V42.9744H416.432V53.3935H436.694V61H407.206ZM453.06 54.6364L452.697 57.0909C452.439 58.8182 452.045 60.6667 451.515 62.6364C451 64.6061 450.462 66.4621 449.901 68.2045C449.341 69.947 448.879 71.3333 448.515 72.3636H444.424C444.621 71.3939 444.879 70.1136 445.197 68.5227C445.515 66.9318 445.833 65.1515 446.151 63.1818C446.485 61.2273 446.757 59.2273 446.97 57.1818L447.242 54.6364H453.06Z" fill="#EE0033"/>
</svg>
